<?xml version="1.0" encoding="UTF-8"?> <svg xmlns="http://www.w3.org/2000/svg" viewBox="0 0 80 80"><defs><style>.cls-1{fill:none;stroke:#0b2265;stroke-miterlimit:10;stroke-width:3px;}.cls-2{fill:#a136b4;}.cls-3{fill:#ffbb16;}</style></defs><g id="Content"><path class="cls-1" d="M17.17,17.3c-2.25,1.3-4.2,4.09-2.69,10.14,0,0-12.31,10.72-1.06,21.66,0,0-3.22,14.44,9,15.27"></path><path class="cls-1" d="M31.27,25a8.7,8.7,0,1,1,8.7-8.7V64.75a8,8,0,0,1-4.13,6.93A8.58,8.58,0,0,1,25.11,58.54L30,53.25"></path><path class="cls-1" d="M38.54,11.57a3.85,3.85,0,0,1,.55,4,5.81,5.81,0,0,1-.51.78,4.26,4.26,0,0,1-6,.73h0"></path><path class="cls-1" d="M25.64,33.22a4.55,4.55,0,0,1,2.16-8.85"></path><path class="cls-1" d="M39.75,36.43A4.9,4.9,0,0,0,33,36.7s-7,10.47-12.17,10.47"></path><line class="cls-1" x1="21.9" y1="54.9" x2="26.74" y2="56.52"></line><path class="cls-1" d="M18.81,38.16a28.67,28.67,0,0,1,7.77,5.6"></path><path class="cls-1" d="M40.3,47.12h6.15l8.21,8.21h5.09"></path><path class="cls-1" d="M40.3,57.93h6.15l7.33,7.26"></path><path class="cls-1" d="M40.3,33.18h6.15L54.66,25h5.15"></path><path class="cls-1" d="M40.3,22.35h6.15l7.26-7.26"></path><line class="cls-1" x1="40.19" y1="40.15" x2="51.5" y2="40.15"></line><path class="cls-1" d="M33.81,63.11A3.27,3.27,0,0,1,40,64.81"></path><polygon class="cls-2" points="50.76 33.97 61.51 40.09 50.84 46.33 50.76 33.97"></polygon><polygon class="cls-3" points="60.27 6.08 53.61 6.08 50.28 11.85 53.61 17.61 60.27 17.61 63.6 11.85 60.27 6.08"></polygon><polygon class="cls-3" points="60.27 62.38 53.61 62.38 50.28 68.15 53.61 73.92 60.27 73.92 63.6 68.15 60.27 62.38"></polygon><polygon class="cls-1" points="66.56 20.4 61.28 20.4 58.65 24.97 61.28 29.54 66.56 29.54 69.19 24.97 66.56 20.4"></polygon><polygon class="cls-1" points="67.72 50.33 62.45 50.33 59.81 54.9 62.45 59.46 67.72 59.46 70.36 54.9 67.72 50.33"></polygon></g></svg> 